<?xml version="1.0" encoding="utf-8"?>
<!-- Generator: Adobe Illustrator 16.0.0, SVG Export Plug-In . SVG Version: 6.00 Build 0)  -->
<!-- Trademarked logo of  a+me Architects -->
<!DOCTYPE svg PUBLIC "-//W3C//DTD SVG 1.1//EN" "http://www.w3.org/Graphics/SVG/1.1/DTD/svg11.dtd">
<svg version="1.1" id="Group_1_1_" xmlns="http://www.w3.org/2000/svg" xmlns:xlink="http://www.w3.org/1999/xlink" x="0px" y="0px"
	 width="372.96px" height="100.8px" viewBox="0 0 372.96 100.8" enable-background="new 0 0 372.96 100.8" xml:space="preserve">
<rect id="yellow-rectangle" x="247.272" y="10.171" fill="#F4EA17" width="51.239" height="79.229"/>
<g id="logo-plus-sign">
	<g>
		<path fill="#ED4724" d="M139.268,62.162V46.86h10.204v15.302h15.265v10.201h-15.265v15.262h-10.204V72.363h-15.265V62.162H139.268
			z"/>
	</g>
</g>
<g id="logo-a">
	<g>
		<path d="M116.129,43.21v44.396h-5.633v-7.631c-2.395,2.911-5.081,5.101-8.061,6.569c-2.979,1.47-6.238,2.203-9.775,2.203
			c-6.285,0-11.652-2.277-16.101-6.834c-4.449-4.557-6.673-10.101-6.673-16.629c0-6.393,2.245-11.859,6.734-16.404
			c4.49-4.542,9.891-6.814,16.204-6.814c3.646,0,6.945,0.775,9.897,2.326c2.952,1.55,5.544,3.876,7.775,6.978V43.21H116.129z
			 M93.293,47.576c-3.18,0-6.115,0.782-8.806,2.344c-2.691,1.563-4.832,3.757-6.421,6.583c-1.59,2.824-2.384,5.813-2.384,8.965
			c0,3.125,0.801,6.115,2.405,8.968c1.603,2.854,3.757,5.073,6.461,6.664c2.704,1.59,5.605,2.385,8.704,2.385
			c3.125,0,6.088-0.788,8.888-2.364c2.799-1.576,4.953-3.709,6.461-6.397c1.508-2.69,2.263-5.72,2.263-9.091
			c0-5.135-1.692-9.428-5.076-12.879C102.405,49.302,98.24,47.576,93.293,47.576z"/>
	</g>
</g>
<g id="logo-me">
	<g>
		<path d="M174.242,43.21h5.714v7.671c1.988-2.829,4.031-4.896,6.129-6.202c2.888-1.741,5.924-2.612,9.114-2.612
			c2.15,0,4.193,0.422,6.127,1.265c1.936,0.843,3.516,1.966,4.741,3.366c1.226,1.401,2.288,3.407,3.187,6.018
			c1.9-3.48,4.275-6.126,7.127-7.935c2.851-1.809,5.918-2.714,9.201-2.714c3.067,0,5.775,0.775,8.123,2.326
			c2.35,1.55,4.092,3.713,5.232,6.488s1.71,6.937,1.71,12.486v24.238h-5.836V63.369c0-4.761-0.34-8.031-1.019-9.813
			c-0.678-1.781-1.836-3.217-3.478-4.305c-1.642-1.087-3.601-1.632-5.879-1.632c-2.767,0-5.295,0.816-7.587,2.448
			c-2.292,1.633-3.967,3.809-5.023,6.529c-1.058,2.721-1.586,7.263-1.586,13.629v17.383h-5.715v-22.73c0-5.357-0.333-8.996-1-10.914
			s-1.83-3.456-3.488-4.611c-1.66-1.156-3.634-1.734-5.918-1.734c-2.641,0-5.109,0.795-7.409,2.387
			c-2.299,1.591-4,3.734-5.102,6.427c-1.102,2.691-1.653,6.814-1.653,12.363v18.812h-5.714L174.242,43.21L174.242,43.21z"/>
		<path d="M296.441,68.63h-35.794c0.517,3.156,1.897,5.666,4.144,7.529c2.244,1.863,5.107,2.795,8.592,2.795
			c4.162,0,7.74-1.455,10.732-4.365l9.389,4.406c-2.342,3.318-5.144,5.773-8.407,7.365c-3.267,1.592-7.144,2.387-11.634,2.387
			c-6.965,0-12.639-2.195-17.02-6.59c-4.381-4.394-6.57-9.896-6.57-16.506c0-6.773,2.184-12.396,6.551-16.873
			c4.367-4.475,9.843-6.712,16.428-6.712c6.993,0,12.68,2.238,17.061,6.712c4.381,4.477,6.571,10.385,6.571,17.729L296.441,68.63z
			 M285.298,59.859c-0.735-2.477-2.188-4.488-4.354-6.039s-4.682-2.326-7.544-2.326c-3.105,0-5.832,0.871-8.176,2.611
			c-1.473,1.088-2.835,3.006-4.09,5.754H285.298z"/>
	</g>
</g>
</svg>
